<?xml version="1.0" encoding="UTF-8" ?>
<!DOCTYPE svg PUBLIC "-//W3C//DTD SVG 1.1//EN" "http://www.w3.org/Graphics/SVG/1.1/DTD/svg11.dtd">
<svg width="96pt" height="96pt" viewBox="0 0 96 96" version="1.1" xmlns="http://www.w3.org/2000/svg">
<g id="#000000ff">
<path fill="#000000" opacity="1.00" d=" M 8.66 14.62 C 10.77 12.38 13.98 11.96 16.91 11.98 C 34.27 11.99 51.63 12.05 68.99 11.96 C 71.84 11.99 74.72 11.82 77.52 12.43 C 81.30 13.33 83.93 17.06 83.92 20.89 C 84.20 29.37 83.88 37.86 84.01 46.35 C 90.61 51.22 95.29 58.61 96.00 66.88 L 96.00 70.87 C 95.18 83.92 84.07 95.08 71.03 96.00 L 67.24 96.00 C 56.54 95.31 47.18 87.88 43.34 78.00 C 35.22 78.01 27.09 77.97 18.97 78.05 C 15.64 77.99 11.83 78.25 9.17 75.83 C 6.54 73.75 5.90 70.25 5.98 67.08 C 5.99 52.70 6.04 38.32 5.96 23.93 C 5.96 20.69 6.07 16.98 8.66 14.62 M 14.08 18.22 C 11.53 18.83 12.25 22.06 11.76 23.99 C 17.84 24.01 23.92 24.00 30.00 24.00 C 30.00 22.00 30.00 20.00 30.00 18.00 C 24.70 18.14 19.36 17.66 14.08 18.22 M 36.00 18.00 C 36.00 20.00 36.00 22.00 36.00 24.00 C 42.00 24.00 48.00 24.00 54.00 24.00 C 54.00 22.00 54.00 20.00 54.00 18.00 C 48.00 18.00 42.00 18.00 36.00 18.00 M 60.00 18.00 C 60.00 20.00 60.00 22.00 60.00 24.00 C 66.08 24.00 72.16 24.02 78.24 23.98 C 77.73 22.06 78.47 18.79 75.89 18.21 C 70.62 17.66 65.29 18.15 60.00 18.00 M 12.00 30.00 C 12.00 32.00 12.00 34.00 12.00 36.00 C 18.00 36.00 24.00 36.00 30.00 36.00 C 30.00 34.00 30.00 32.00 30.00 30.00 C 24.00 30.00 18.00 30.00 12.00 30.00 M 36.00 30.00 C 36.00 32.00 36.00 34.00 36.00 36.00 C 42.00 36.00 48.00 36.00 54.00 36.00 C 54.00 34.00 54.00 32.00 54.00 30.00 C 48.00 30.00 42.00 30.00 36.00 30.00 M 60.00 30.00 C 60.00 32.00 60.00 34.00 60.00 36.00 C 66.00 36.00 72.00 36.00 78.00 36.00 C 78.00 34.00 78.00 32.00 78.00 30.00 C 72.00 30.00 66.00 30.00 60.00 30.00 M 12.00 42.00 C 12.00 44.00 12.00 46.00 12.00 48.00 C 18.00 48.00 24.00 48.00 30.00 48.00 C 30.00 46.00 30.00 44.00 30.00 42.00 C 24.00 42.00 18.00 42.00 12.00 42.00 M 36.00 42.00 C 36.00 44.00 36.00 45.99 36.00 47.99 C 42.01 47.69 48.22 48.87 54.06 47.06 C 54.01 45.37 54.00 43.68 53.98 42.00 C 47.99 42.00 41.99 42.00 36.00 42.00 M 60.14 42.88 C 61.30 43.69 63.76 43.53 64.37 42.21 C 63.21 41.48 60.55 41.35 60.14 42.88 M 72.54 42.03 C 73.64 43.20 76.39 43.62 77.98 42.96 C 77.34 41.16 74.13 41.73 72.54 42.03 M 64.40 48.52 C 56.37 50.19 49.78 57.05 48.36 65.11 C 46.97 72.27 49.62 80.05 55.18 84.79 C 60.70 89.71 68.93 91.34 75.90 88.81 C 83.46 86.26 89.18 79.06 89.87 71.09 C 90.61 64.45 87.89 57.58 82.84 53.21 C 77.92 48.78 70.83 47.09 64.40 48.52 M 12.00 54.00 C 12.00 56.00 12.00 58.00 12.00 60.00 C 18.00 60.00 24.00 60.00 30.00 60.00 C 30.00 58.00 30.00 56.00 30.00 54.00 C 24.00 54.00 18.00 54.00 12.00 54.00 M 36.00 54.00 C 36.00 56.00 36.00 58.00 36.00 60.00 C 38.48 60.00 40.96 60.00 43.44 60.00 C 44.40 57.98 45.38 55.98 46.41 53.99 C 42.94 54.00 39.47 54.00 36.00 54.00 M 11.75 66.02 C 12.28 67.95 11.53 71.05 14.00 71.78 C 19.31 72.33 24.67 71.86 30.00 72.00 C 30.00 70.00 30.00 68.00 30.00 66.00 C 23.92 66.00 17.84 65.98 11.75 66.02 M 36.00 66.00 C 36.00 68.00 36.00 70.00 36.00 72.00 C 38.02 72.00 40.05 72.00 42.08 72.00 C 42.07 70.00 42.07 68.00 42.08 66.00 C 40.05 66.00 38.02 66.00 36.00 66.00 Z" />
<path fill="#000000" opacity="1.00" d=" M 66.00 54.00 C 68.00 54.00 70.00 54.00 72.00 54.00 C 72.00 58.00 72.00 62.00 72.00 66.00 C 74.00 66.00 76.00 66.00 78.00 66.00 C 77.99 68.00 77.99 70.00 78.00 72.00 C 74.00 72.00 70.00 72.00 66.00 72.00 C 66.00 66.00 66.00 60.00 66.00 54.00 Z" />
</g>
</svg>
