<?xml version="1.0" encoding="UTF-8" ?>
<!DOCTYPE svg PUBLIC "-//W3C//DTD SVG 1.1//EN" "http://www.w3.org/Graphics/SVG/1.1/DTD/svg11.dtd">
<svg width="96pt" height="96pt" viewBox="0 0 96 96" version="1.1" xmlns="http://www.w3.org/2000/svg">
<g id="#000000ff">
<path fill="#000000" opacity="1.00" d=" M 48.20 10.90 C 48.57 7.70 51.92 5.81 54.92 6.02 C 62.29 5.98 69.67 5.98 77.04 6.02 C 80.04 5.80 83.37 7.68 83.79 10.85 C 84.28 15.85 83.85 20.90 84.02 25.93 C 83.98 28.93 84.44 32.70 81.62 34.67 C 78.04 37.33 73.19 35.04 69.30 36.43 C 65.11 39.02 61.07 41.85 56.99 44.61 C 57.00 41.76 57.00 38.91 57.00 36.06 C 53.90 36.19 50.07 35.80 48.62 32.56 C 47.55 29.50 48.13 26.18 48.00 23.00 C 48.11 18.97 47.76 14.91 48.20 10.90 M 54.00 12.00 C 54.00 18.00 54.00 24.00 54.00 30.00 C 57.00 30.00 59.99 30.00 62.98 30.00 C 62.99 30.85 63.02 32.56 63.03 33.41 C 64.71 32.27 66.32 31.00 68.15 30.11 C 71.42 29.83 74.72 30.07 78.00 30.00 C 78.00 24.00 78.00 18.00 78.00 12.00 C 70.00 12.00 62.00 12.00 54.00 12.00 Z" />
<path fill="#000000" opacity="1.00" d=" M 9.87 15.88 C 13.06 12.62 16.24 9.34 19.58 6.24 C 25.60 12.33 31.61 18.44 37.75 24.40 C 35.35 26.98 32.83 29.43 30.36 31.93 C 36.73 43.08 45.87 52.81 57.19 59.00 C 59.72 56.52 62.18 53.97 64.74 51.52 C 70.81 57.62 76.96 63.64 82.97 69.81 C 78.39 73.91 74.71 79.16 69.30 82.22 C 64.15 84.95 57.70 84.30 52.86 81.19 C 43.54 76.24 36.17 68.58 28.69 61.30 C 20.36 52.81 11.78 44.18 6.52 33.37 C 4.00 27.56 5.43 20.37 9.87 15.88 M 13.26 21.21 C 10.98 24.13 10.61 28.41 12.36 31.69 C 17.65 41.88 26.01 49.93 33.94 58.05 C 39.93 63.74 45.63 69.92 52.81 74.15 C 55.96 76.00 59.22 78.50 63.12 77.92 C 68.16 77.53 71.04 72.87 74.47 69.78 C 71.28 66.50 68.00 63.30 64.79 60.04 C 62.59 61.83 60.97 64.61 58.03 65.24 C 55.10 65.03 52.62 63.27 50.18 61.81 C 40.10 55.40 31.96 46.24 25.81 36.07 C 24.97 34.27 23.41 32.27 24.36 30.21 C 25.31 27.84 27.59 26.39 29.27 24.57 C 26.05 21.27 22.78 18.04 19.53 14.78 C 17.37 16.84 15.11 18.84 13.26 21.21 Z" />
</g>
</svg>
