<?xml version="1.0" encoding="UTF-8" ?>
<!DOCTYPE svg PUBLIC "-//W3C//DTD SVG 1.1//EN" "http://www.w3.org/Graphics/SVG/1.1/DTD/svg11.dtd">
<svg width="96pt" height="96pt" viewBox="0 0 96 96" version="1.1" xmlns="http://www.w3.org/2000/svg">
<g id="#000000ff">
<path fill="#000000" opacity="1.00" d=" M 27.15 8.19 C 29.53 5.94 32.96 6.08 35.99 5.83 C 35.99 7.81 36.00 9.78 36.00 11.75 C 34.49 11.95 32.95 12.06 31.46 12.43 C 29.78 13.29 30.11 15.44 29.98 17.00 C 29.99 27.33 30.01 37.67 30.00 48.00 C 28.00 48.00 26.00 48.00 24.00 48.00 C 24.02 37.32 23.96 26.65 24.00 15.97 C 23.93 13.09 24.81 10.03 27.15 8.19 Z" />
<path fill="#000000" opacity="1.00" d=" M 62.64 8.65 C 65.01 6.02 68.74 6.04 71.99 5.83 C 71.99 7.80 72.00 9.78 72.00 11.75 C 70.48 11.96 68.93 12.06 67.44 12.44 C 65.79 13.33 66.10 15.44 65.98 17.00 C 65.99 27.33 66.01 37.67 66.00 48.00 C 64.00 48.00 62.00 48.00 60.00 48.00 C 60.00 46.00 60.00 44.00 60.00 42.00 C 52.00 42.00 44.00 42.00 36.00 42.00 C 36.00 40.00 36.00 38.00 36.00 36.00 C 44.00 36.00 52.00 36.00 60.00 36.00 C 60.00 34.00 60.00 32.00 60.00 30.00 C 52.00 30.00 44.00 30.00 36.00 30.00 C 36.00 28.00 36.00 26.00 36.00 24.00 C 44.00 24.00 52.00 24.00 60.00 24.00 C 60.36 18.91 58.61 12.69 62.64 8.65 Z" />
<path fill="#000000" opacity="1.00" d=" M 5.71 54.05 C 7.65 54.02 9.60 54.01 11.54 53.99 C 12.53 56.89 14.49 60.17 18.00 60.01 C 21.52 60.16 23.45 56.88 24.46 54.00 C 26.15 54.00 27.85 54.00 29.54 54.00 C 30.53 56.89 32.48 60.16 35.99 60.01 C 39.51 60.18 41.45 56.89 42.46 54.00 C 44.15 54.00 45.85 54.00 47.55 54.00 C 48.53 56.89 50.48 60.17 53.99 60.01 C 57.51 60.17 59.45 56.89 60.46 54.00 C 62.15 54.00 63.85 54.00 65.55 54.00 C 66.53 56.89 68.49 60.17 72.00 60.01 C 75.51 60.17 77.45 56.88 78.46 54.00 C 80.40 54.01 82.34 54.03 84.28 54.06 C 83.49 58.51 81.35 63.19 76.84 64.91 C 72.16 67.34 66.82 65.36 62.99 62.28 C 60.32 64.09 57.43 66.12 54.04 65.98 C 50.61 66.15 47.70 64.11 44.99 62.28 C 42.30 64.11 39.39 66.14 35.98 65.98 C 32.57 66.13 29.68 64.09 26.99 62.28 C 23.17 65.38 17.81 67.33 13.13 64.90 C 8.63 63.17 6.49 58.51 5.71 54.05 Z" />
<path fill="#000000" opacity="1.00" d=" M 5.71 72.05 C 7.65 72.02 9.60 72.00 11.54 71.99 C 12.53 74.89 14.48 78.17 17.99 78.01 C 21.51 78.17 23.45 74.89 24.45 72.00 C 26.15 72.00 27.85 72.00 29.54 72.00 C 30.53 74.90 32.49 78.17 36.00 78.01 C 39.51 78.17 41.45 74.88 42.45 72.00 C 44.15 72.00 45.85 72.00 47.54 72.00 C 48.53 74.89 50.49 78.17 53.99 78.01 C 57.51 78.17 59.45 74.89 60.46 72.00 C 62.15 72.00 63.85 72.00 65.55 72.00 C 66.53 74.88 68.45 78.14 71.94 78.01 C 75.48 78.20 77.45 74.90 78.46 72.00 C 80.40 72.01 82.34 72.03 84.29 72.06 C 83.49 76.50 81.37 81.16 76.88 82.89 C 72.19 85.34 66.83 83.37 62.99 80.28 C 60.31 82.10 57.41 84.13 54.01 83.98 C 50.59 84.14 47.69 82.10 44.99 80.28 C 42.31 82.11 39.40 84.14 35.99 83.98 C 32.58 84.13 29.68 82.09 26.99 80.28 C 23.17 83.38 17.82 85.33 13.14 82.90 C 8.64 81.17 6.49 76.51 5.71 72.05 Z" />
</g>
</svg>
