<?xml version="1.0" encoding="UTF-8" ?>
<!DOCTYPE svg PUBLIC "-//W3C//DTD SVG 1.1//EN" "http://www.w3.org/Graphics/SVG/1.1/DTD/svg11.dtd">
<svg width="16pt" height="16pt" viewBox="0 0 96 96" version="1.1" xmlns="http://www.w3.org/2000/svg">
<g id="#2896DF">
<path fill="#2896DF" opacity="1.00" d=" M 43.59 13.49 C 45.72 12.66 48.06 11.38 50.30 12.67 C 62.18 17.50 74.11 22.21 85.98 27.05 C 87.70 27.80 90.22 28.58 89.96 30.96 C 90.06 48.64 89.97 66.32 90.00 84.00 C 88.00 84.00 86.00 84.00 84.00 84.00 C 84.02 66.93 83.96 49.86 84.03 32.79 C 72.04 27.88 60.06 22.96 48.00 18.22 C 35.94 22.93 24.00 27.91 11.99 32.75 C 12.01 49.83 12.00 66.92 12.00 84.00 C 10.00 84.00 8.00 83.99 6.00 84.00 C 6.03 66.30 5.94 48.60 6.04 30.90 C 5.81 28.90 7.75 27.97 9.29 27.36 C 20.68 22.63 32.20 18.22 43.59 13.49 Z" />
<path fill="#2896DF" opacity="1.00" d=" M 28.07 40.02 C 29.01 37.65 31.46 36.12 33.99 36.18 C 42.31 36.04 50.64 36.20 58.96 36.11 C 61.19 36.19 63.73 35.96 65.55 37.51 C 67.35 38.88 68.10 41.10 68.85 43.14 C 70.16 46.92 71.47 50.71 72.80 54.48 C 75.19 55.91 78.27 57.60 77.96 60.88 C 77.95 67.92 78.24 74.98 77.80 82.00 C 76.95 84.44 74.03 83.91 72.01 84.08 C 72.00 82.05 72.00 80.03 72.00 78.00 C 56.00 78.00 40.00 78.00 24.00 78.00 C 24.00 80.03 24.00 82.06 23.99 84.08 C 21.77 84.08 18.09 84.23 18.08 81.10 C 17.97 74.03 17.87 66.94 18.13 59.88 C 18.25 56.65 21.80 55.82 23.84 54.06 C 25.56 49.48 26.21 44.55 28.07 40.02 M 33.52 42.18 C 32.37 46.11 31.29 50.05 30.20 53.99 C 42.23 54.00 54.26 54.00 66.29 53.99 C 64.88 50.03 63.58 46.04 62.02 42.13 C 52.52 42.17 43.02 42.07 33.52 42.18 M 23.96 60.84 C 24.03 64.56 23.99 68.28 24.00 72.00 C 26.00 72.00 28.00 72.00 30.00 72.00 C 30.00 70.00 30.00 68.00 30.00 66.00 C 32.00 66.00 34.00 66.00 36.00 66.00 C 36.00 68.00 36.00 70.00 36.00 72.00 C 44.00 72.00 52.00 72.00 60.00 72.00 C 60.00 70.00 60.00 68.00 60.00 66.00 C 62.00 66.00 64.00 66.00 66.00 66.00 C 66.00 68.00 66.00 70.00 66.00 72.00 C 68.00 72.00 70.00 72.00 72.00 72.00 C 72.01 68.28 71.97 64.56 72.04 60.84 C 70.75 60.40 69.44 59.91 68.04 59.98 C 56.36 60.01 44.69 60.00 33.01 60.00 C 29.98 60.06 26.81 59.56 23.96 60.84 Z" />
</g>
</svg>
