<?xml version="1.0" encoding="UTF-8" ?>
<!DOCTYPE svg PUBLIC "-//W3C//DTD SVG 1.1//EN" "http://www.w3.org/Graphics/SVG/1.1/DTD/svg11.dtd">
<svg width="96pt" height="96pt" viewBox="0 0 96 96" version="1.1" xmlns="http://www.w3.org/2000/svg">
<g id="#000000ff">
<path fill="#000000" opacity="1.00" d=" M 13.17 12.23 C 35.46 11.70 57.79 12.14 80.10 12.00 C 85.15 11.51 90.09 15.74 89.95 20.90 C 90.04 36.95 90.03 53.00 89.96 69.05 C 90.06 73.79 85.82 78.06 81.08 77.97 C 59.03 78.02 36.98 78.02 14.94 77.97 C 10.18 78.08 5.92 73.80 6.04 69.04 C 5.97 53.01 5.97 36.96 6.04 20.93 C 5.97 16.83 9.10 12.92 13.17 12.23 M 14.33 18.01 C 25.53 25.81 36.78 33.55 48.00 41.33 C 59.18 33.53 70.41 25.82 81.58 18.00 C 59.16 18.00 36.75 17.99 14.33 18.01 M 12.01 23.66 C 12.03 38.78 11.93 53.91 12.05 69.03 C 11.92 71.03 14.03 72.33 15.85 72.00 C 37.61 71.97 59.37 72.06 81.13 71.95 C 83.12 72.05 84.27 69.89 84.00 68.12 C 84.01 53.30 84.00 38.48 83.99 23.66 C 71.98 31.95 59.98 40.27 48.00 48.61 C 36.02 40.27 24.02 31.96 12.01 23.66 Z" />
</g>
</svg>
