<?xml version="1.0" encoding="UTF-8" ?>
<!DOCTYPE svg PUBLIC "-//W3C//DTD SVG 1.1//EN" "http://www.w3.org/Graphics/SVG/1.1/DTD/svg11.dtd">
<svg width="96pt" height="96pt" viewBox="0 0 96 96" version="1.1" xmlns="http://www.w3.org/2000/svg">
<g id="#000000ff">
<path fill="#000000" opacity="1.00" d=" M 5.99 15.01 C 9.98 11.02 13.96 7.01 17.98 3.04 C 18.01 6.03 17.99 9.01 18.00 12.00 C 28.00 12.00 38.00 12.00 48.00 12.00 C 48.01 9.01 47.99 6.03 48.02 3.04 C 52.03 7.01 56.02 11.02 60.01 15.01 C 55.99 18.99 52.01 23.00 48.01 26.99 C 47.99 23.99 48.01 21.00 48.00 18.00 C 38.00 18.00 28.00 18.00 18.00 18.00 C 17.99 21.00 18.01 24.00 17.99 26.99 C 13.99 23.00 10.00 18.99 5.99 15.01 Z" />
<path fill="#000000" opacity="1.00" d=" M 13.20 30.24 C 24.10 29.64 35.06 30.21 45.98 29.97 C 49.65 30.05 53.89 29.48 56.83 32.18 C 59.50 34.25 60.12 37.77 60.02 40.95 C 59.96 51.99 60.04 63.04 59.99 74.09 C 60.10 77.20 58.91 80.45 56.27 82.25 C 53.62 84.36 50.07 83.96 46.91 84.04 C 36.22 83.90 25.53 84.12 14.84 83.95 C 10.13 84.03 5.95 79.80 6.06 75.09 C 5.92 63.37 6.03 51.64 6.01 39.91 C 5.66 35.50 8.69 30.91 13.20 30.24 M 14.11 36.20 C 11.93 36.62 11.98 39.25 11.97 40.98 C 12.09 52.35 11.86 63.74 12.08 75.12 C 11.98 77.16 14.14 78.24 15.93 78.00 C 27.64 77.96 39.36 78.10 51.06 77.93 C 53.13 78.06 54.21 75.92 53.99 74.11 C 53.96 62.38 54.12 50.64 53.91 38.92 C 54.04 36.31 51.10 35.77 49.10 35.97 C 37.44 36.18 25.75 35.70 14.11 36.20 Z" />
<path fill="#000000" opacity="1.00" d=" M 63.01 41.99 C 67.00 38.00 70.98 34.00 75.00 30.02 C 79.02 34.00 83.00 38.00 86.99 41.99 C 83.99 42.01 81.00 41.99 78.00 42.00 C 78.00 52.00 78.00 62.00 78.00 72.00 C 81.01 72.01 84.01 71.99 87.02 72.00 C 83.00 75.99 79.01 80.00 75.00 84.00 C 70.99 80.00 67.00 75.99 62.98 72.00 C 65.98 71.99 68.99 72.01 72.00 72.00 C 72.00 62.00 72.00 52.00 72.00 42.00 C 69.00 41.99 66.00 42.01 63.01 41.99 Z" />
</g>
</svg>
