<?xml version="1.0" encoding="UTF-8" ?>
<!DOCTYPE svg PUBLIC "-//W3C//DTD SVG 1.1//EN" "http://www.w3.org/Graphics/SVG/1.1/DTD/svg11.dtd">
<svg width="96pt" height="96pt" viewBox="0 0 96 96" version="1.1" xmlns="http://www.w3.org/2000/svg">
<g id="#000000ff">
<path fill="#000000" opacity="1.00" d=" M 23.45 6.60 C 35.54 5.27 47.80 6.35 59.97 5.99 C 67.56 5.61 75.27 9.08 79.67 15.35 C 82.79 19.54 84.15 24.80 84.01 29.98 C 83.91 41.00 84.16 52.04 83.89 63.06 C 83.36 75.06 71.88 84.88 59.99 84.02 C 49.29 83.95 38.60 84.07 27.91 83.96 C 16.36 83.87 6.04 73.63 6.05 62.04 C 5.96 50.69 5.97 39.33 6.04 27.98 C 6.12 17.99 13.69 8.71 23.45 6.60 M 24.38 12.57 C 17.48 14.23 12.16 20.84 12.05 27.94 C 11.90 37.62 12.08 47.30 11.98 56.98 C 11.98 60.82 11.79 64.87 13.56 68.41 C 16.26 74.24 22.50 78.17 28.95 77.99 C 39.32 78.04 49.69 77.97 60.06 78.01 C 69.07 78.77 77.81 71.26 77.93 62.13 C 78.09 51.08 77.97 40.03 77.99 28.98 C 78.15 22.80 74.60 16.74 69.11 13.91 C 63.53 11.00 57.03 12.27 51.00 12.00 C 42.14 12.30 33.18 11.34 24.38 12.57 Z" />
<path fill="#000000" opacity="1.00" d=" M 67.41 18.47 C 70.62 16.32 73.90 21.61 70.59 23.51 C 67.44 25.78 64.07 20.36 67.41 18.47 Z" />
<path fill="#000000" opacity="1.00" d=" M 40.39 24.53 C 47.26 22.97 54.91 25.06 59.84 30.15 C 65.05 35.28 67.21 43.24 65.30 50.30 C 63.63 57.01 58.37 62.61 51.85 64.83 C 44.92 67.33 36.76 65.71 31.26 60.84 C 25.02 55.65 22.49 46.61 24.91 38.90 C 27.00 31.79 33.11 26.03 40.39 24.53 M 40.42 30.69 C 32.91 32.96 28.20 41.64 30.59 49.16 C 32.68 57.20 42.16 62.12 49.93 59.15 C 57.88 56.62 62.29 46.78 58.81 39.17 C 56.04 32.14 47.56 28.33 40.42 30.69 Z" />
</g>
</svg>
