<?xml version="1.0" encoding="UTF-8" ?>
<!DOCTYPE svg PUBLIC "-//W3C//DTD SVG 1.1//EN" "http://www.w3.org/Graphics/SVG/1.1/DTD/svg11.dtd">
<svg width="96pt" height="96pt" viewBox="0 0 96 96" version="1.1" xmlns="http://www.w3.org/2000/svg">
<g id="#2896DF">
<path fill="#2896DF" opacity="1.00" d=" M 42.42 6.55 C 57.56 3.32 73.84 13.79 77.13 28.90 C 79.63 37.67 76.06 46.50 72.15 54.24 C 66.02 66.32 58.48 77.64 50.50 88.56 C 49.52 90.43 46.53 90.46 45.53 88.60 C 37.81 78.10 30.59 67.18 24.54 55.63 C 20.73 48.01 16.70 39.60 18.46 30.84 C 20.38 18.79 30.39 8.62 42.42 6.55 M 28.27 22.32 C 24.06 28.30 22.73 36.37 25.59 43.21 C 30.96 57.19 39.58 69.61 48.00 81.89 C 56.42 69.60 65.04 57.18 70.41 43.20 C 73.36 36.16 71.83 27.83 67.34 21.80 C 62.93 15.70 55.50 11.98 47.99 12.02 C 40.26 11.97 32.63 15.93 28.27 22.32 Z" />
<path fill="#2896DF" opacity="1.00" d=" M 36.03 31.33 C 40.03 28.70 43.98 25.98 48.00 23.36 C 52.02 25.98 55.98 28.70 59.98 31.35 C 60.02 36.90 60.00 42.45 60.00 48.00 C 52.00 48.00 44.00 48.00 36.00 48.00 C 36.01 42.44 35.97 36.88 36.03 31.33 M 42.08 34.90 C 41.88 37.26 42.00 39.63 42.01 42.00 C 46.00 42.00 50.00 42.00 53.99 42.00 C 53.86 39.51 54.42 36.85 53.67 34.46 C 51.91 33.00 49.90 31.89 48.00 30.64 C 46.04 32.06 43.62 33.02 42.08 34.90 Z" />
</g>
</svg>
