<?xml version="1.0" encoding="UTF-8" ?>
<!DOCTYPE svg PUBLIC "-//W3C//DTD SVG 1.1//EN" "http://www.w3.org/Graphics/SVG/1.1/DTD/svg11.dtd">
<svg width="96pt" height="96pt" viewBox="0 0 96 96" version="1.1" xmlns="http://www.w3.org/2000/svg">
<g id="#000000ff">
<path fill="#000000" opacity="1.00" d=" M 18.20 6.31 C 34.45 5.59 50.76 6.21 67.04 5.99 C 72.04 5.71 77.28 7.40 80.48 11.40 C 82.96 14.33 84.08 18.18 83.99 21.99 C 83.98 37.66 84.06 53.34 83.95 69.02 C 84.12 76.96 77.05 84.11 69.10 83.96 C 53.37 84.05 37.64 83.98 21.92 84.00 C 15.98 84.30 10.02 80.90 7.52 75.47 C 5.86 72.26 6.00 68.55 5.98 65.05 C 6.06 50.33 5.92 35.62 6.05 20.91 C 5.95 13.96 11.33 7.44 18.20 6.31 M 12.05 20.91 C 11.96 36.96 11.97 53.01 12.05 69.06 C 11.91 73.83 16.22 78.10 20.97 77.96 C 30.44 78.07 39.91 77.96 49.38 78.00 C 49.38 69.91 49.38 61.82 49.38 53.74 C 46.92 53.73 44.47 53.74 42.01 53.74 C 42.00 50.54 41.99 47.33 42.01 44.13 C 44.47 44.13 46.92 44.13 49.38 44.13 C 49.50 38.62 48.45 32.07 52.71 27.74 C 57.04 23.23 63.79 24.37 69.40 24.61 C 69.40 27.49 69.39 30.37 69.39 33.25 C 66.45 33.50 63.01 32.57 60.45 34.42 C 58.65 37.27 59.68 40.94 59.43 44.13 C 62.64 44.11 65.84 44.16 69.05 44.13 C 68.64 47.33 68.22 50.54 67.80 53.74 C 65.01 53.73 62.22 53.74 59.44 53.73 C 59.41 61.82 59.44 69.90 59.42 77.99 C 63.22 77.91 67.04 78.26 70.83 77.79 C 75.29 76.97 78.38 72.48 78.00 68.03 C 77.97 52.33 78.07 36.62 77.95 20.92 C 78.08 16.21 73.87 11.93 69.14 12.06 C 53.05 11.96 36.94 11.96 20.85 12.06 C 16.13 11.93 11.91 16.20 12.05 20.91 Z" />
</g>
</svg>
